<svg width="71" height="58" viewBox="0 0 71 58" fill="none" xmlns="http://www.w3.org/2000/svg">
<path d="M53.6642 52.2484C51.0609 52.8767 47.9842 53.1667 44.375 53.1667H26.625C23.0159 53.1667 19.9392 52.8767 17.3359 52.2484M53.6642 52.2484C53.0134 45.965 45.1146 41.0108 35.5 41.0108C25.8854 41.0108 17.9867 45.965 17.3359 52.2484M53.6642 52.2484C61.7109 50.3875 65.0834 45.385 65.0834 36.25V21.75C65.0834 9.66671 59.1667 4.83337 44.375 4.83337H26.625C11.8334 4.83337 5.91669 9.66671 5.91669 21.75V36.25C5.91669 45.385 9.28919 50.3875 17.3359 52.2484M35.5 34.2442C29.6425 34.2442 24.9092 30.3534 24.9092 25.5684C24.9092 20.7834 29.6425 16.9167 35.5 16.9167C41.3575 16.9167 46.0909 20.7834 46.0909 25.5684C46.0909 30.3534 41.3575 34.2442 35.5 34.2442Z" stroke="white" stroke-width="1.5" stroke-linecap="round" stroke-linejoin="round"/>
</svg>
